<svg xmlns="http://www.w3.org/2000/svg" viewBox="0 0 800 200" style="background:#0a0a0a">
  <!-- Title -->
  <text x="400" y="25" text-anchor="middle" fill="#10B981" font-family="monospace" font-size="16" font-weight="bold">ML Pipeline Architecture</text>
  
  <!-- Boxes -->
  <rect x="20" y="60" width="110" height="80" rx="5" fill="#1a1a1a" stroke="#374151" stroke-width="2"/>
  <rect x="150" y="60" width="110" height="80" rx="5" fill="#1a1a1a" stroke="#374151" stroke-width="2"/>
  <rect x="280" y="60" width="110" height="80" rx="5" fill="#1a1a1a" stroke="#374151" stroke-width="2"/>
  <rect x="410" y="60" width="110" height="80" rx="5" fill="#1a1a1a" stroke="#374151" stroke-width="2"/>
  <rect x="540" y="60" width="110" height="80" rx="5" fill="#1a1a1a" stroke="#374151" stroke-width="2"/>
  <rect x="670" y="60" width="110" height="80" rx="5" fill="#065f46" stroke="#10B981" stroke-width="2"/>
  
  <!-- Arrows -->
  <line x1="130" y1="100" x2="150" y2="100" stroke="#4b5563" stroke-width="2"/>
  <polygon points="150,100 145,95 145,105" fill="#4b5563"/>
  
  <line x1="260" y1="100" x2="280" y2="100" stroke="#4b5563" stroke-width="2"/>
  <polygon points="280,100 275,95 275,105" fill="#4b5563"/>
  
  <line x1="390" y1="100" x2="410" y2="100" stroke="#4b5563" stroke-width="2"/>
  <polygon points="410,100 405,95 405,105" fill="#4b5563"/>
  
  <line x1="520" y1="100" x2="540" y2="100" stroke="#4b5563" stroke-width="2"/>
  <polygon points="540,100 535,95 535,105" fill="#4b5563"/>
  
  <line x1="650" y1="100" x2="670" y2="100" stroke="#4b5563" stroke-width="2"/>
  <polygon points="670,100 665,95 665,105" fill="#4b5563"/>
  
  <!-- Labels -->
  <text x="75" y="85" text-anchor="middle" fill="#f3f4f6" font-family="monospace" font-size="11">📥 Raw Data</text>
  <text x="75" y="105" text-anchor="middle" fill="#9ca3af" font-family="monospace" font-size="9">CSV, JSON</text>
  <text x="75" y="120" text-anchor="middle" fill="#9ca3af" font-family="monospace" font-size="9">Database</text>
  
  <text x="205" y="90" text-anchor="middle" fill="#f3f4f6" font-family="monospace" font-size="11">🧹 Clean &</text>
  <text x="205" y="108" text-anchor="middle" fill="#f3f4f6" font-family="monospace" font-size="11">Preprocess</text>
  
  <text x="335" y="90" text-anchor="middle" fill="#f3f4f6" font-family="monospace" font-size="11">⚙️ Feature</text>
  <text x="335" y="108" text-anchor="middle" fill="#f3f4f6" font-family="monospace" font-size="11">Engineering</text>
  
  <text x="465" y="90" text-anchor="middle" fill="#f3f4f6" font-family="monospace" font-size="11">🤖 Model</text>
  <text x="465" y="108" text-anchor="middle" fill="#f3f4f6" font-family="monospace" font-size="11">Training</text>
  
  <text x="595" y="85" text-anchor="middle" fill="#f3f4f6" font-family="monospace" font-size="11">📊 Evaluate</text>
  <text x="595" y="105" text-anchor="middle" fill="#9ca3af" font-family="monospace" font-size="9">Metrics</text>
  <text x="595" y="120" text-anchor="middle" fill="#9ca3af" font-family="monospace" font-size="9">Validation</text>
  
  <text x="725" y="90" text-anchor="middle" fill="#10B981" font-family="monospace" font-size="11" font-weight="bold">🚀 Deploy</text>
  <text x="725" y="110" text-anchor="middle" fill="#6ee7b7" font-family="monospace" font-size="9">Production</text>
</svg>
